<svg xmlns="http://www.w3.org/2000/svg" width="1400" height="1050" viewBox="0 0 1400 1050">
<rect x="0" y="0" width="1400" height="1050" rx="0" fill="#e5e7eb" stroke="none" stroke-width="1"/>
<rect x="30" y="30" width="1340" height="990" rx="8" fill="#f7f8fa" stroke="#c5c9d0" stroke-width="1"/>
<rect x="30" y="30" width="1340" height="65" rx="8" fill="#31363e" stroke="none" stroke-width="1"/>
<text x="58" y="72" fill="#ffffff" font-family="Liberation Sans" font-size="25" font-weight="bold" font-style="normal">Editor de wireframes  /  RF001</text>
<text x="1090" y="72" fill="#e1e5eb" font-family="Liberation Sans" font-size="20" font-weight="normal" font-style="normal">Zoom 100%</text>
<rect x="30" y="95" width="190" height="925" rx="0" fill="#eef0f3" stroke="none" stroke-width="1"/>
<text x="53" y="140" fill="#343a40" font-family="Liberation Sans" font-size="18" font-weight="bold" font-style="normal">ELEMENTOS</text>
<rect x="50" y="164" width="150" height="46" rx="3" fill="#ffffff" stroke="#ccd1d8" stroke-width="1"/>
<text x="61" y="193" fill="#343a40" font-family="Liberation Sans" font-size="16" font-weight="normal" font-style="normal">Texto</text>
<rect x="50" y="226" width="150" height="46" rx="3" fill="#ffffff" stroke="#ccd1d8" stroke-width="1"/>
<text x="61" y="255" fill="#343a40" font-family="Liberation Sans" font-size="16" font-weight="normal" font-style="normal">Campo de texto</text>
<rect x="50" y="288" width="150" height="46" rx="3" fill="#ffffff" stroke="#ccd1d8" stroke-width="1"/>
<text x="61" y="317" fill="#343a40" font-family="Liberation Sans" font-size="16" font-weight="normal" font-style="normal">Lista de valores</text>
<rect x="50" y="350" width="150" height="46" rx="3" fill="#ffffff" stroke="#ccd1d8" stroke-width="1"/>
<text x="61" y="379" fill="#343a40" font-family="Liberation Sans" font-size="16" font-weight="normal" font-style="normal">Campo numérico</text>
<rect x="50" y="412" width="150" height="46" rx="3" fill="#ffffff" stroke="#ccd1d8" stroke-width="1"/>
<text x="61" y="441" fill="#343a40" font-family="Liberation Sans" font-size="16" font-weight="normal" font-style="normal">Campo de data</text>
<text x="53" y="533" fill="#343a40" font-family="Liberation Sans" font-size="18" font-weight="bold" font-style="normal">CAMADAS</text>
<text x="53" y="574" fill="#343a40" font-family="Liberation Sans" font-size="18" font-weight="normal" font-style="normal">Página RF001</text>
<text x="65" y="612" fill="#343a40" font-family="Liberation Sans" font-size="18" font-weight="normal" font-style="normal">Título</text>
<text x="65" y="650" fill="#343a40" font-family="Liberation Sans" font-size="18" font-weight="normal" font-style="normal">Campos</text>
<text x="65" y="688" fill="#343a40" font-family="Liberation Sans" font-size="18" font-weight="normal" font-style="normal">Obrigatoriedade</text>
<rect x="258" y="134" width="1064" height="815" rx="3" fill="#ffffff" stroke="#adb4bf" stroke-width="1"/>
<rect x="258" y="134" width="1064" height="53" rx="0" fill="#f1f2f4" stroke="#adb4bf" stroke-width="1"/>
<text x="284" y="168" fill="#343a40" font-family="Liberation Sans" font-size="22" font-weight="normal" font-style="normal">BVapp  /  navegador</text>
<text x="296" y="243" fill="#343a40" font-family="Liberation Sans" font-size="32" font-weight="bold" font-style="normal">Inclusão de painel solar</text>
<text x="296" y="285" fill="#343a40" font-family="Liberation Sans" font-size="22" font-weight="normal" font-style="normal">* preenchimento obrigatório</text>
<text x="297" y="338" fill="#343a40" font-family="Liberation Sans" font-size="23" font-weight="normal" font-style="normal">Número de Série *</text>
<rect x="297" y="352" width="424" height="48" rx="0" fill="#ffffff" stroke="#949ca7" stroke-width="1.5"/>
<text x="769" y="338" fill="#343a40" font-family="Liberation Sans" font-size="23" font-weight="normal" font-style="normal">Cooperado *</text>
<rect x="769" y="352" width="424" height="48" rx="0" fill="#ffffff" stroke="#949ca7" stroke-width="1.5"/>
<path d="M 1167,369 L 1175,377" stroke="#343a40" stroke-width="2" fill="none"/>
<path d="M 1175,377 L 1183,369" stroke="#343a40" stroke-width="2" fill="none"/>
<text x="297" y="439" fill="#343a40" font-family="Liberation Sans" font-size="23" font-weight="normal" font-style="normal">Marca</text>
<rect x="297" y="453" width="424" height="48" rx="0" fill="#ffffff" stroke="#949ca7" stroke-width="1.5"/>
<path d="M 695,470 L 703,478" stroke="#343a40" stroke-width="2" fill="none"/>
<path d="M 703,478 L 711,470" stroke="#343a40" stroke-width="2" fill="none"/>
<text x="769" y="439" fill="#343a40" font-family="Liberation Sans" font-size="23" font-weight="normal" font-style="normal">Modelo</text>
<rect x="769" y="453" width="424" height="48" rx="0" fill="#ffffff" stroke="#949ca7" stroke-width="1.5"/>
<text x="297" y="540" fill="#343a40" font-family="Liberation Sans" font-size="23" font-weight="normal" font-style="normal">Potência de Pico (Wp)</text>
<rect x="297" y="554" width="424" height="48" rx="0" fill="#ffffff" stroke="#949ca7" stroke-width="1.5"/>
<text x="689" y="584" fill="#343a40" font-family="Liberation Sans" font-size="22" font-weight="normal" font-style="normal">↕</text>
<text x="769" y="540" fill="#343a40" font-family="Liberation Sans" font-size="23" font-weight="normal" font-style="normal">Eficiência (%)</text>
<rect x="769" y="554" width="424" height="48" rx="0" fill="#ffffff" stroke="#949ca7" stroke-width="1.5"/>
<text x="1161" y="584" fill="#343a40" font-family="Liberation Sans" font-size="22" font-weight="normal" font-style="normal">↕</text>
<text x="297" y="641" fill="#343a40" font-family="Liberation Sans" font-size="23" font-weight="normal" font-style="normal">Data de Fabricação</text>
<rect x="297" y="655" width="424" height="48" rx="0" fill="#ffffff" stroke="#949ca7" stroke-width="1.5"/>
<rect x="685" y="668" width="20" height="21" rx="2" fill="none" stroke="#343a40" stroke-width="1.2"/>
<path d="M 685,674 L 705,674" stroke="#343a40" stroke-width="1.2" fill="none"/>
<text x="769" y="641" fill="#343a40" font-family="Liberation Sans" font-size="23" font-weight="normal" font-style="normal">Situação</text>
<rect x="769" y="655" width="424" height="48" rx="0" fill="#ffffff" stroke="#949ca7" stroke-width="1.5"/>
<path d="M 1167,672 L 1175,680" stroke="#343a40" stroke-width="2" fill="none"/>
<path d="M 1175,680 L 1183,672" stroke="#343a40" stroke-width="2" fill="none"/>
<text x="297" y="742" fill="#343a40" font-family="Liberation Sans" font-size="23" font-weight="normal" font-style="normal">Fornecedor *</text>
<rect x="297" y="756" width="424" height="48" rx="0" fill="#ffffff" stroke="#949ca7" stroke-width="1.5"/>
<text x="769" y="742" fill="#343a40" font-family="Liberation Sans" font-size="23" font-weight="normal" font-style="normal">Inversor ativo</text>
<rect x="769" y="756" width="424" height="48" rx="0" fill="#ffffff" stroke="#949ca7" stroke-width="1.5"/>
<path d="M 1167,773 L 1175,781" stroke="#343a40" stroke-width="2" fill="none"/>
<path d="M 1175,781 L 1183,773" stroke="#343a40" stroke-width="2" fill="none"/>
<text x="769" y="823" fill="#343a40" font-family="Liberation Sans" font-size="18" font-weight="normal" font-style="normal">Herda informações da Usina.</text>
<text x="275" y="988" fill="#5d6570" font-family="Liberation Sans" font-size="20" font-weight="normal" font-style="normal">Wireframe digital ilustrativo • aplicativo fictício • sem interação</text>
</svg>